<svg version="1.0" xmlns="http://www.w3.org/2000/svg" width="1833.000000pt" height="55.000000pt"
  viewBox="0 0 1833.000000 220.000000" preserveAspectRatio="xMidYMid meet">
  <g transform="translate(0.000000,220.000000) scale(0.100000,-0.100000)" fill="#fff"
    stroke="none">
    <path
      d="M10 2178 c5 -13 192 -480 415 -1038 472 -1182 455 -1140 465 -1140 4 0 157 375 340 832 183 458 376 943 430 1078 54 135 101 255 105 268 l6 22 -134 0 c-98 0 -137 -4 -145 -13 -6 -7 -24 -49 -40 -92 -17 -44 -89 -233 -162 -420 -73 -187 -181 -468 -240 -625 -59 -157 -120 -312 -135 -345 l-27 -60 -20 45 c-22 50 -111 280 -349 900 -88 228 -176 458 -197 510 l-38 95 -142 3 -142 3 10 -23z" />
    <path
      d="M3175 2188 c-3 -7 -4 -474 -3 -1038 l3 -1025 128 -3 127 -3 -2 1038 -3 1038 -123 3 c-92 2 -124 -1 -127 -10z" />
    <path
      d="M4844 2187 c-2 -7 -3 -58 -2 -113 l3 -99 260 -5 260 -5 5 -920 5 -920 122 -3 123 -3 2 923 3 923 258 3 258 2 -3 113 -3 112 -643 3 c-527 2 -643 0 -648 -11z" />
    <path
      d="M7566 2184 c-8 -20 -8 -2027 0 -2048 6 -14 65 -16 570 -16 l565 0 -3 113 -3 112 -438 3 -437 2 2 393 3 392 419 3 c321 2 422 5 428 15 14 22 9 193 -5 206 -10 7 -142 12 -428 13 l-414 3 0 295 0 295 435 5 435 5 0 110 0 110 -561 3 c-506 2 -562 1 -568 -14z" />
    <path
      d="M10236 2184 c-8 -20 -8 -2028 0 -2048 6 -14 65 -16 570 -16 l564 0 0 115 0 115 -440 0 -440 0 2 393 3 392 419 3 c321 2 422 5 428 15 14 22 9 193 -5 206 -10 7 -142 12 -428 13 l-414 3 0 295 0 295 438 3 437 2 0 115 0 115 -564 0 c-505 0 -564 -2 -570 -16z" />
    <path
      d="M12864 2187 c-2 -7 -3 -58 -2 -113 l3 -99 507 -5 507 -5 -81 -125 c-70 -107 -395 -618 -646 -1015 -42 -66 -156 -245 -254 -398 -98 -152 -181 -284 -184 -292 -6 -13 85 -15 772 -13 l779 3 3 104 c2 77 -1 107 -10 113 -7 4 -262 8 -567 8 -484 0 -552 2 -547 15 3 8 97 158 209 332 112 175 275 431 362 568 180 284 482 759 543 854 23 35 39 67 36 72 -3 5 -321 9 -715 9 -579 0 -711 -2 -715 -13z" />
    <path
      d="M15515 2189 c-7 -11 19 -56 290 -504 100 -165 233 -385 296 -490 l114 -190 -3 -334 c-2 -184 -1 -383 3 -443 l7 -108 119 0 118 0 3 448 3 447 106 170 c59 94 198 321 310 505 111 184 224 371 251 414 26 44 48 83 48 88 0 5 -64 7 -142 6 l-143 -3 -43 -65 c-23 -36 -141 -229 -261 -430 -121 -201 -227 -375 -238 -388 l-18 -22 -125 208 c-68 114 -187 313 -263 442 -77 129 -146 241 -155 248 -20 15 -268 17 -277 1z" />
    <path
      d="M17765 918 c-3 -7 -6 -71 -7 -143 l-3 -130 -150 -5 -150 -5 0 -110 0 -110 150 -5 150 -5 3 -143 3 -143 127 3 127 3 3 143 3 142 149 0 149 0 3 98 c2 53 1 105 -1 114 -3 15 -20 18 -150 20 l-146 3 -5 140 -5 140 -123 3 c-92 2 -124 -1 -127 -10z" />
  </g>
</svg>