<?xml version="1.0" encoding="UTF-8"?>
<svg width="20px" height="12px" viewBox="0 0 20 12" version="1.1" xmlns="http://www.w3.org/2000/svg" xmlns:xlink="http://www.w3.org/1999/xlink">
    <!-- Generator: Sketch 52.6 (67491) - http://www.bohemiancoding.com/sketch -->
    <title>Slider</title>
    <desc>Created with Sketch.</desc>
    <g id="Page-1" stroke="none" stroke-width="1" fill="none" fill-rule="evenodd">
        <g id="Slider" fill="#203048">
            <path d="M4.63730084,2.27239375 L9.73570759,7.53637797 C10.0880975,7.90021218 10.0880975,8.48853982 9.73570759,8.84850345 L8.88847235,9.72325377 C8.53608247,10.087088 7.96626054,10.087088 7.61761949,9.72325377 L4,5.99588847 L0.386129335,9.72712435 C0.0337394564,10.0909586 -0.536082474,10.0909586 -0.884723524,9.72712435 L-1.73570759,8.85237403 C-2.08809747,8.48853982 -2.08809747,7.90021218 -1.73570759,7.54024855 L3.36269916,2.27626433 C3.71508903,1.90855955 4.28491097,1.90855955 4.63730084,2.27239375 Z" id="Mask" transform="translate(4.000000, 6.000000) rotate(-90.000000) translate(-4.000000, -6.000000) "></path>
            <path d="M16.6373008,2.27239375 L21.7357076,7.53637797 C22.0880975,7.90021218 22.0880975,8.48853982 21.7357076,8.84850345 L20.8884724,9.72325377 C20.5360825,10.087088 19.9662605,10.087088 19.6176195,9.72325377 L16,5.99588847 L12.3861293,9.72712435 C12.0337395,10.0909586 11.4639175,10.0909586 11.1152765,9.72712435 L10.2642924,8.85237403 C9.91190253,8.48853982 9.91190253,7.90021218 10.2642924,7.54024855 L15.3626992,2.27626433 C15.715089,1.90855955 16.284911,1.90855955 16.6373008,2.27239375 Z" id="Mask" transform="translate(16.000000, 6.000000) scale(1, -1) rotate(-270.000000) translate(-16.000000, -6.000000) "></path>
        </g>
    </g>
</svg>