<svg width="157px" height="150px" viewBox="0 0 157 150" version="1.1" xmlns="http://www.w3.org/2000/svg" xmlns:xlink="http://www.w3.org/1999/xlink">
    <g id="Page-1" stroke="none" stroke-width="1" fill="none" fill-rule="evenodd">
        <g id="Detail" transform="translate(-1337.000000, -179.000000)">
            <g id="Group-24" transform="translate(1337.788795, 179.399876)">
                <g id="Group-9" transform="translate(77.682786, 74.583716) scale(-1, 1) rotate(60.000000) translate(-77.682786, -74.583716) translate(26.182786, 14.616900)">
                    <path d="M17.6148,1.22453175 C22.2538,3.65553175 26.0658,7.17953175 29.9058,10.6595318 C41.7158,21.3665318 51.2878,33.8075318 58.9098,47.7995318 C61.1018,51.8245318 63.7008,55.6275318 66.0888,59.5475318 C66.6408,60.4545318 67.2598,61.3775318 67.5298,62.3785318 C67.7188,63.0825318 67.6448,64.2425318 67.1938,64.6415318 C66.5668,65.1965318 65.3738,65.6165318 64.6078,65.4095318 C62.7888,64.9175318 61.0198,64.1355318 59.3328,63.2725318 C54.5928,60.8445318 50.5628,57.4145318 46.6318,53.8875318 C33.4208,42.0335318 22.3118,28.4985318 14.1338,12.6845318 C12.7978,10.1015318 11.7488,7.32553175 10.9278,4.53353175 C10.1728,1.96553175 11.8698,-0.13246825 14.7688,0.00653175024 C15.3928,0.27053175 16.5468,0.66453175 17.6148,1.22453175 Z" id="Fill-1" fill="#709889"></path>
                    <g id="Group-5" transform="translate(0.000000, 83.933632)">
                        <mask id="mask-2" fill="white">
                            <use xlink:href="#path-1"></use>
                        </mask>
                        <g id="Clip-4"></g>
                        <path d="M8.6072,35.9997 C7.2442,35.8417 5.2822,35.7417 3.3762,35.3637 C0.1582,34.7247 -0.9718,32.2997 0.9172,29.6037 C2.6392,27.1457 4.5582,24.6787 6.8692,22.8077 C19.6682,12.4467 33.9402,4.8687 50.0002,0.9017 C52.1142,0.3807 54.3472,0.2287 56.5342,0.1417 C59.7292,0.0127 61.4802,3.0307 59.9202,5.7797 C50.5612,22.2767 36.0472,31.3637 17.7902,35.0527 C16.5002,35.3127 15.1892,35.4967 13.8782,35.6297 C12.3242,35.7887 10.7602,35.8537 8.6072,35.9997" id="Fill-3" fill="#709889" mask="url(#mask-2)"></path>
                    </g>
                    <g id="Group-8" transform="translate(18.000000, 65.933632)">
                        <mask id="mask-4" fill="white">
                            <use xlink:href="#path-3"></use>
                        </mask>
                        <g id="Clip-7"></g>
                        <path d="M39.0378,10.0573 C29.6208,10.1833 20.3088,9.0543 11.0078,7.7773 C8.2978,7.4053 5.5708,7.1613 2.8628,6.7743 C0.9718,6.5033 0.0968,5.4843 0.3108,4.0363 C0.5188,2.6323 1.7768,1.8943 3.5668,2.1093 C10.9868,2.9973 18.3948,4.0183 25.8318,4.7343 C34.6538,5.5823 43.4958,5.5033 52.3378,4.7863 C61.8958,4.0093 71.3588,2.6253 80.7468,0.7013 C81.0808,0.6313 81.4228,0.5693 81.7618,0.5653 C83.2108,0.5493 84.2398,1.3563 84.3848,2.5973 C84.5378,3.8973 83.8178,4.9113 82.3668,5.2093 C79.3038,5.8383 76.2378,6.4523 73.1568,6.9783 C61.8648,8.9043 50.4968,10.0083 39.0378,10.0573" id="Fill-6" fill="#ACC9BC" mask="url(#mask-4)"></path>
                    </g>
                </g>
            </g>
        </g>
    </g>
</svg>