<svg width="161px" height="170px" viewBox="0 0 161 170" version="1.1" xmlns="http://www.w3.org/2000/svg" xmlns:xlink="http://www.w3.org/1999/xlink">
    <g id="Page-1" stroke="none" stroke-width="1" fill="none" fill-rule="evenodd">
        <g id="Detail" transform="translate(-1320.000000, -2792.000000)">
            <g id="Group-9" transform="translate(1319.998742, 2792.285128)">
                <g id="Group-3" transform="translate(69.011525, 0.000481)">
                    <mask id="mask-2" fill="white">
                        <use xlink:href="#path-1"></use>
                    </mask>
                    <g id="Clip-2"></g>
                </g>
                <g id="Group-6" transform="translate(0.001258, 61.929978)">
                    <mask id="mask-4" fill="white">
                        <use xlink:href="#path-3"></use>
                    </mask>
                    <g id="Clip-5"></g>
                </g>
                <path d="M90.7228338,6.57125629 C67.6753366,25.1426522 59.9556904,43.1695344 82.5504564,63.8564243 C94.2425281,74.5590167 105.019851,89.2655232 122.836562,81.0561089 C134.445053,75.7106054 155.581792,56.6688422 159.291866,44.6872217 C164.826794,26.8225352 145.236305,19.4333672 133.291169,12.3894441 C123.858109,6.83076924 100.121068,-8.77708141 90.7228338,6.57125629" id="Fill-1" fill="#FBB158"></path>
                <path d="M36.7603712,93.3201523 C44.1549877,81.4210213 44.7669877,72.1691897 31.3720103,66.4790962 C24.4421456,63.5346042 17.2868073,58.660647 10.5985215,65.1142967 C6.24089749,69.3184277 -0.221914542,81.128401 0.00585989401,87.0562486 C0.348671924,95.8920106 10.2948223,96.1229063 16.7645366,97.3939758 C21.8676043,98.395286 34.9749877,101.639257 36.7603712,93.3201523" id="Fill-4" fill="#FBB158"></path>
                <path d="M133.292994,163.56633 C141.400369,150.355501 142.071131,140.081714 127.388888,133.764613 C119.791572,130.497066 111.949708,125.084751 104.617902,132.250384 C99.8433782,136.919647 92.7584505,150.029684 93.0076574,156.609314 C93.3826322,166.421332 104.287179,166.674484 111.374436,168.087921 C116.97111,169.198981 131.334275,172.801721 133.292994,163.56633" id="Fill-7" fill="#FBB158"></path>
            </g>
        </g>
    </g>
</svg>