<svg width="96" height="96" viewBox="0 0 96 96" fill="none" xmlns="http://www.w3.org/2000/svg">
  <path d="M47.9 95.8C21.5 95.8 0 74.3 0 47.9C0 21.5 21.5 0 47.9 0C74.3 0 95.8 21.5 95.8 47.9C95.8 74.3 74.3 95.8 47.9 95.8ZM47.9 4C23.7 4 4 23.7 4 47.9C4 72.1 23.7 91.8 47.9 91.8C72.1 91.8 91.8 72.1 91.8 47.9C91.8 23.7 72.1 4 47.9 4Z" fill="black"/>
  <path d="M47.9 73.3001C39.3 73.3001 31.2 70.1001 25.6 64.5001C24.8 63.7001 24.8 62.5001 25.6 61.7001C26.4 60.9001 27.6 60.9001 28.4 61.7001C33.2 66.5001 40.3 69.3001 47.9 69.3001C55.5 69.3001 62.5 66.5001 67.4 61.7001C68.2 60.9001 69.4 60.9001 70.2 61.7001C71 62.5001 71 63.7001 70.2 64.5001C64.6 70.1001 56.5 73.3001 47.9 73.3001Z" fill="black"/>
  <path d="M71.9 39.6C71.3 39.6 70.7 39.3 70.3 38.8C70.2 38.7 67.4 34.8 63 34.5C59.9 34.3 56.7 35.8 53.4 39.1C52.6 39.9 51.4 39.9 50.6 39.1C49.8 38.3 49.8 37.1 50.6 36.3C54.8 32.1 59.1 30.2 63.4 30.6C69.7 31.1 73.5 36.4 73.6 36.6C74.2 37.5 74 38.7 73.1 39.4C72.7 39.5 72.3 39.6 71.9 39.6Z" fill="black"/>
  <circle cx="32" cy="35" r="7" fill="black"/>
</svg>